# Blender v2.79 (sub 0) OBJ File: ''
# www.blender.org
mtllib base.mtl
o base.001
v -614.170837 -108.294823 362.644714
v -532.228882 -93.846245 410.683746
v -623.645447 0.000027 362.644714
v -586.035034 -213.299194 362.644714
v -507.846893 -184.841049 410.683777
v -540.092834 -311.822571 362.644714
v -468.034271 -270.219543 410.683899
v -477.740173 -400.871368 362.644745
v -414.000641 -347.387573 410.683899
v -400.871643 -477.739929 362.644867
v -347.387817 -414.000397 410.683899
v -311.822845 -540.092590 362.644867
v -270.219818 -468.034027 410.684021
v -213.299454 -586.034790 362.644989
v -184.841293 -507.846710 410.684021
v -108.295097 -614.170654 362.645020
v -93.846542 -532.228638 410.684052
v -0.000228 -623.645203 362.645142
v -0.000261 -540.439148 410.684174
v 108.294609 -614.170654 362.645264
v 93.846001 -532.228638 410.684296
v 213.298996 -586.034790 362.645294
v 184.840836 -507.846710 410.684326
v 311.822388 -540.092590 362.645416
v 270.219330 -468.034027 410.684326
v 400.871185 -477.739990 362.645416
v 347.387360 -414.000397 410.684448
v 477.739716 -400.871429 362.645538
v 414.000183 -347.387634 410.684448
v 540.092346 -311.822632 362.645569
v 468.033783 -270.219604 410.684448
v 586.034546 -213.299255 362.645569
v 507.846497 -184.841080 410.684570
v 614.170410 -108.294884 362.645569
v 532.228455 -93.846291 410.684601
v 623.644958 -0.000027 362.645569
v 540.438904 -0.000024 410.684601
v 614.170471 108.294823 362.645569
v 532.228455 93.846245 410.684601
v 586.034607 213.299194 362.645569
v 507.846497 184.841049 410.684570
v 540.092407 311.822571 362.645569
v 468.033813 270.219543 410.684448
v 477.739777 400.871368 362.645538
v 414.000214 347.387573 410.684448
v 400.871246 477.739929 362.645416
v 347.387390 414.000397 410.684448
v 311.822449 540.092590 362.645416
v 270.219360 468.034027 410.684326
v 213.299057 586.034790 362.645294
v 184.840881 507.846710 410.684326
v 108.294662 614.170654 362.645264
v 93.846046 532.228638 410.684296
v -0.000173 623.645203 362.645142
v -0.000213 540.439148 410.684174
v -108.295044 614.170654 362.645020
v -93.846497 532.228638 410.684052
v -213.299393 586.034790 362.644989
v -184.841248 507.846710 410.684021
v -311.822784 540.092590 362.644867
v -270.219788 468.034027 410.684021
v -400.871582 477.739990 362.644867
v -347.387787 414.000397 410.683899
v -477.740112 400.871429 362.644745
v -414.000610 347.387634 410.683899
v -540.092773 311.822632 362.644714
v -468.034241 270.219604 410.683899
v -586.034973 213.299255 362.644714
v -507.846893 184.841080 410.683777
v -614.170776 108.294884 362.644714
v -532.228882 93.846291 410.683746
v -540.439392 0.000024 410.683746
v -803.407715 -141.662384 362.644592
v -815.801270 0.000036 2.351760
v -803.407410 -141.662384 2.351769
v -766.602722 -279.020477 362.644592
v -766.602417 -279.020477 2.351796
v -706.504944 -407.900635 362.644592
v -706.504639 -407.900635 2.351841
v -624.940308 -524.386963 362.644714
v -624.940002 -524.386963 2.351900
v -524.387207 -624.940063 362.644714
v -524.386902 -624.940063 2.351977
v -407.900909 -706.504700 362.644867
v -407.900635 -706.504700 2.352062
v -279.020721 -766.602478 362.644989
v -279.020447 -766.602478 2.352157
v -141.662659 -803.407471 362.645020
v -141.662384 -803.407471 2.352259
v -0.000236 -815.801331 362.645142
v 0.000031 -815.801331 2.352363
v 141.662170 -803.407471 362.645264
v 141.662445 -803.407471 2.352467
v 279.020264 -766.602478 362.645294
v 279.020538 -766.602478 2.352569
v 407.900452 -706.504700 362.645416
v 407.900726 -706.504700 2.352667
v 524.386780 -624.940063 362.645569
v 524.387085 -624.940063 2.352749
v 624.939880 -524.386963 362.645569
v 624.940186 -524.386963 2.352826
v 706.504456 -407.900696 362.645691
v 706.504761 -407.900696 2.352885
v 766.602234 -279.020538 362.645691
v 766.602539 -279.020538 2.352930
v 803.407288 -141.662445 362.645691
v 803.407593 -141.662445 2.352957
v 815.801147 -0.000036 362.645691
v 815.801453 -0.000036 2.352966
v 803.407349 141.662384 362.645691
v 803.407593 141.662384 2.352957
v 766.602295 279.020477 362.645691
v 766.602539 279.020477 2.352930
v 706.504517 407.900635 362.645691
v 706.504761 407.900635 2.352885
v 624.939941 524.386963 362.645569
v 624.940186 524.386963 2.352826
v 524.386841 624.940063 362.645569
v 524.387085 624.940063 2.352749
v 407.900513 706.504700 362.645416
v 407.900787 706.504700 2.352667
v 279.020325 766.602478 362.645294
v 279.020599 766.602478 2.352569
v 141.662231 803.407471 362.645264
v 141.662506 803.407471 2.352467
v -0.000165 815.801331 362.645142
v 0.000102 815.801331 2.352363
v -141.662598 803.407471 362.645020
v -141.662323 803.407471 2.352259
v -279.020660 766.602478 362.644989
v -279.020386 766.602478 2.352157
v -407.900848 706.504700 362.644867
v -407.900574 706.504700 2.352062
v -524.387146 624.940063 362.644714
v -524.386902 624.940063 2.351977
v -624.940247 524.386963 362.644714
v -624.940002 524.386963 2.351900
v -706.504883 407.900696 362.644592
v -706.504639 407.900696 2.351841
v -766.602661 279.020538 362.644592
v -766.602417 279.020538 2.351796
v -803.407654 141.662445 362.644592
v -803.407410 141.662445 2.351769
v -815.801575 0.000036 362.644592
vn -0.4924 -0.0868 0.8660
vn -0.5000 0.0000 0.8660
vn -0.4698 -0.1710 0.8660
vn -0.4330 -0.2500 0.8660
vn -0.3830 -0.3214 0.8660
vn -0.3214 -0.3830 0.8660
vn -0.2500 -0.4330 0.8660
vn -0.1710 -0.4698 0.8660
vn -0.0868 -0.4924 0.8660
vn -0.0000 -0.5000 0.8660
vn 0.0868 -0.4924 0.8660
vn 0.1710 -0.4698 0.8660
vn 0.2500 -0.4330 0.8660
vn 0.3214 -0.3830 0.8660
vn 0.3830 -0.3214 0.8660
vn 0.4330 -0.2500 0.8660
vn 0.4698 -0.1710 0.8660
vn 0.4924 -0.0868 0.8660
vn 0.5000 0.0000 0.8660
vn 0.4924 0.0868 0.8660
vn 0.4698 0.1710 0.8660
vn 0.4330 0.2500 0.8660
vn 0.3830 0.3214 0.8660
vn 0.3214 0.3830 0.8660
vn 0.2500 0.4330 0.8660
vn 0.1710 0.4698 0.8660
vn 0.0868 0.4924 0.8660
vn -0.0000 0.5000 0.8660
vn -0.0868 0.4924 0.8660
vn -0.1710 0.4698 0.8660
vn -0.2500 0.4330 0.8660
vn -0.3214 0.3830 0.8660
vn -0.3830 0.3214 0.8660
vn -0.4330 0.2500 0.8660
vn -0.4698 0.1710 0.8660
vn -0.4924 0.0868 0.8660
vn -0.0000 0.0000 1.0000
vn -0.9848 -0.1736 -0.0000
vn -1.0000 -0.0000 -0.0000
vn -0.9397 -0.3420 -0.0000
vn -0.8660 -0.5000 -0.0000
vn -0.7660 -0.6428 -0.0000
vn -0.6428 -0.7660 -0.0000
vn -0.5000 -0.8660 -0.0000
vn -0.3420 -0.9397 -0.0000
vn -0.1736 -0.9848 -0.0000
vn 0.0000 -1.0000 0.0000
vn 0.1736 -0.9848 0.0000
vn 0.3420 -0.9397 0.0000
vn 0.5000 -0.8660 0.0000
vn 0.6428 -0.7660 0.0000
vn 0.7660 -0.6428 0.0000
vn 0.8660 -0.5000 0.0000
vn 0.9397 -0.3420 0.0000
vn 0.9848 -0.1736 0.0000
vn 1.0000 -0.0000 0.0000
vn 0.9848 0.1736 0.0000
vn 0.9397 0.3420 0.0000
vn 0.8660 0.5000 0.0000
vn 0.7660 0.6428 0.0000
vn 0.6428 0.7660 0.0000
vn 0.5000 0.8660 0.0000
vn 0.3420 0.9397 0.0000
vn 0.1736 0.9848 0.0000
vn 0.0000 1.0000 0.0000
vn -0.1736 0.9848 0.0000
vn -0.3420 0.9397 -0.0000
vn -0.5000 0.8660 -0.0000
vn -0.6428 0.7660 -0.0000
vn -0.7660 0.6428 -0.0000
vn -0.8660 0.5000 -0.0000
vn -0.9397 0.3420 -0.0000
vn -0.9848 0.1736 -0.0000
vn 0.0000 -0.0000 -1.0000
usemtl Material_2.001
s 1
f 1//1 2//1 3//2
f 4//3 5//3 1//1
f 6//4 7//4 4//3
f 8//5 9//5 6//4
f 10//6 11//6 8//5
f 12//7 13//7 10//6
f 14//8 15//8 12//7
f 16//9 17//9 14//8
f 18//10 19//10 16//9
f 20//11 21//11 18//10
f 22//12 23//12 20//11
f 24//13 25//13 22//12
f 26//14 27//14 24//13
f 28//15 29//15 26//14
f 30//16 31//16 28//15
f 32//17 33//17 30//16
f 34//18 35//18 32//17
f 36//19 37//19 34//18
f 38//20 39//20 36//19
f 40//21 41//21 38//20
f 42//22 43//22 40//21
f 44//23 45//23 42//22
f 46//24 47//24 44//23
f 48//25 49//25 46//24
f 50//26 51//26 48//25
f 52//27 53//27 50//26
f 54//28 55//28 52//27
f 56//29 57//29 54//28
f 58//30 59//30 56//29
f 60//31 61//31 58//30
f 62//32 63//32 60//31
f 64//33 65//33 62//32
f 66//34 67//34 64//33
f 68//35 69//35 66//34
f 70//36 71//36 68//35
f 3//2 72//2 70//36
f 71//36 70//36 72//2
f 69//35 68//35 71//36
f 67//34 66//34 69//35
f 65//33 64//33 67//34
f 63//32 62//32 65//33
f 61//31 60//31 63//32
f 59//30 58//30 61//31
f 57//29 56//29 59//30
f 55//28 54//28 57//29
f 53//27 52//27 55//28
f 51//26 50//26 53//27
f 49//25 48//25 51//26
f 47//24 46//24 49//25
f 45//23 44//23 47//24
f 43//22 42//22 45//23
f 41//21 40//21 43//22
f 39//20 38//20 41//21
f 37//19 36//19 39//20
f 35//18 34//18 37//19
f 33//17 32//17 35//18
f 31//16 30//16 33//17
f 29//15 28//15 31//16
f 27//14 26//14 29//15
f 25//13 24//13 27//14
f 23//12 22//12 25//13
f 21//11 20//11 23//12
f 19//10 18//10 21//11
f 17//9 16//9 19//10
f 15//8 14//8 17//9
f 13//7 12//7 15//8
f 11//6 10//6 13//7
f 9//5 8//5 11//6
f 7//4 6//4 9//5
f 5//3 4//3 7//4
f 2//1 1//1 5//3
f 72//2 3//2 2//1
f 69//37 71//37 72//37
f 67//37 69//37 72//37
f 65//37 67//37 72//37
f 63//37 65//37 72//37
f 61//37 63//37 72//37
f 59//37 61//37 72//37
f 57//37 59//37 72//37
f 55//37 57//37 72//37
f 53//37 55//37 72//37
f 51//37 53//37 72//37
f 49//37 51//37 72//37
f 47//37 49//37 72//37
f 45//37 47//37 72//37
f 43//37 45//37 72//37
f 41//37 43//37 72//37
f 39//37 41//37 72//37
f 37//37 39//37 72//37
f 35//37 37//37 72//37
f 33//37 35//37 72//37
f 31//37 33//37 72//37
f 29//37 31//37 72//37
f 27//37 29//37 72//37
f 25//37 27//37 72//37
f 23//37 25//37 72//37
f 21//37 23//37 72//37
f 19//37 21//37 72//37
f 17//37 19//37 72//37
f 15//37 17//37 72//37
f 13//37 15//37 72//37
f 11//37 13//37 72//37
f 9//37 11//37 72//37
f 7//37 9//37 72//37
f 5//37 7//37 72//37
f 2//37 5//37 72//37
f 73//38 74//39 75//38
f 76//40 75//38 77//40
f 78//41 77//40 79//41
f 80//42 79//41 81//42
f 82//43 81//42 83//43
f 84//44 83//43 85//44
f 86//45 85//44 87//45
f 88//46 87//45 89//46
f 90//47 89//46 91//47
f 92//48 91//47 93//48
f 94//49 93//48 95//49
f 96//50 95//49 97//50
f 98//51 97//50 99//51
f 100//52 99//51 101//52
f 102//53 101//52 103//53
f 104//54 103//53 105//54
f 106//55 105//54 107//55
f 108//56 107//55 109//56
f 110//57 109//56 111//57
f 112//58 111//57 113//58
f 114//59 113//58 115//59
f 116//60 115//59 117//60
f 118//61 117//60 119//61
f 120//62 119//61 121//62
f 122//63 121//62 123//63
f 124//64 123//63 125//64
f 126//65 125//64 127//65
f 128//66 127//65 129//66
f 130//67 129//66 131//67
f 132//68 131//67 133//68
f 134//69 133//68 135//69
f 136//70 135//69 137//70
f 138//71 137//70 139//71
f 140//72 139//71 141//72
f 142//73 141//72 143//73
f 144//39 143//73 74//39
f 142//73 143//73 144//39
f 140//72 141//72 142//73
f 138//71 139//71 140//72
f 136//70 137//70 138//71
f 134//69 135//69 136//70
f 132//68 133//68 134//69
f 130//67 131//67 132//68
f 128//66 129//66 130//67
f 126//65 127//65 128//66
f 124//64 125//64 126//65
f 122//63 123//63 124//64
f 120//62 121//62 122//63
f 118//61 119//61 120//62
f 116//60 117//60 118//61
f 114//59 115//59 116//60
f 112//58 113//58 114//59
f 110//57 111//57 112//58
f 108//56 109//56 110//57
f 106//55 107//55 108//56
f 104//54 105//54 106//55
f 102//53 103//53 104//54
f 100//52 101//52 102//53
f 98//51 99//51 100//52
f 96//50 97//50 98//51
f 94//49 95//49 96//50
f 92//48 93//48 94//49
f 90//47 91//47 92//48
f 88//46 89//46 90//47
f 86//45 87//45 88//46
f 84//44 85//44 86//45
f 82//43 83//43 84//44
f 80//42 81//42 82//43
f 78//41 79//41 80//42
f 76//40 77//40 78//41
f 73//38 75//38 76//40
f 144//39 74//39 73//38
f 141//74 74//74 143//74
f 139//74 74//74 141//74
f 137//74 74//74 139//74
f 135//74 74//74 137//74
f 133//74 74//74 135//74
f 131//74 74//74 133//74
f 129//74 74//74 131//74
f 127//74 74//74 129//74
f 125//74 74//74 127//74
f 123//74 74//74 125//74
f 121//74 74//74 123//74
f 119//74 74//74 121//74
f 117//74 74//74 119//74
f 115//74 74//74 117//74
f 113//74 74//74 115//74
f 111//74 74//74 113//74
f 109//74 74//74 111//74
f 107//74 74//74 109//74
f 105//74 74//74 107//74
f 103//74 74//74 105//74
f 101//74 74//74 103//74
f 99//74 74//74 101//74
f 97//74 74//74 99//74
f 95//74 74//74 97//74
f 93//74 74//74 95//74
f 91//74 74//74 93//74
f 89//74 74//74 91//74
f 87//74 74//74 89//74
f 85//74 74//74 87//74
f 83//74 74//74 85//74
f 81//74 74//74 83//74
f 79//74 74//74 81//74
f 77//74 74//74 79//74
f 75//74 74//74 77//74
f 1//37 3//37 144//37
f 73//37 1//37 144//37
f 76//37 4//37 1//37
f 78//37 6//37 4//37
f 94//37 20//37 92//37
f 88//37 16//37 14//37
f 108//37 36//37 34//37
f 110//37 38//37 36//37
f 130//37 58//37 56//37
f 132//37 60//37 58//37
f 138//37 66//37 64//37
f 144//37 3//37 70//37
f 140//37 68//37 66//37
f 84//37 86//37 12//37
f 142//37 70//37 68//37
f 136//37 64//37 62//37
f 142//37 144//37 70//37
f 134//37 62//37 60//37
f 140//37 142//37 68//37
f 138//37 140//37 66//37
f 136//37 138//37 64//37
f 134//37 136//37 62//37
f 128//37 56//37 54//37
f 132//37 134//37 60//37
f 126//37 54//37 52//37
f 130//37 132//37 58//37
f 124//37 52//37 50//37
f 128//37 130//37 56//37
f 122//37 50//37 48//37
f 126//37 128//37 54//37
f 120//37 48//37 46//37
f 124//37 126//37 52//37
f 118//37 46//37 44//37
f 122//37 124//37 50//37
f 116//37 44//37 42//37
f 120//37 122//37 48//37
f 114//37 42//37 40//37
f 118//37 120//37 46//37
f 112//37 40//37 38//37
f 116//37 118//37 44//37
f 114//37 116//37 42//37
f 112//37 114//37 40//37
f 106//37 34//37 32//37
f 110//37 112//37 38//37
f 104//37 32//37 30//37
f 108//37 110//37 36//37
f 102//37 30//37 28//37
f 106//37 108//37 34//37
f 100//37 28//37 26//37
f 104//37 106//37 32//37
f 98//37 26//37 24//37
f 102//37 104//37 30//37
f 96//37 24//37 22//37
f 100//37 102//37 28//37
f 94//37 22//37 20//37
f 98//37 100//37 26//37
f 92//37 20//37 18//37
f 96//37 98//37 24//37
f 90//37 18//37 16//37
f 94//37 96//37 22//37
f 86//37 14//37 12//37
f 84//37 12//37 10//37
f 90//37 92//37 18//37
f 82//37 10//37 8//37
f 88//37 90//37 16//37
f 80//37 8//37 6//37
f 86//37 88//37 14//37
f 82//37 84//37 10//37
f 80//37 82//37 8//37
f 78//37 80//37 6//37
f 76//37 78//37 4//37
f 73//37 76//37 1//37
